<svg width="44" height="44" viewBox="0 0 44 44" fill="none" xmlns="http://www.w3.org/2000/svg">
<path d="M31.2336 0H12.7884C4.77638 0 0 4.774 0 12.782V31.196C0 39.226 4.77638 44 12.7884 44H31.2116C39.2235 44 43.9999 39.226 43.9999 31.218V12.782C44.0219 4.774 39.2456 0 31.2336 0ZM19.8759 34.452C20.5142 35.09 20.5142 36.146 19.8759 36.784C19.5457 37.114 19.1275 37.268 18.7093 37.268C18.2911 37.268 17.8729 37.114 17.5427 36.784L13.7569 33L9.97097 36.784C9.6408 37.092 9.2226 37.268 8.80439 37.268C8.38618 37.268 7.96797 37.114 7.63781 36.784C6.99949 36.146 6.99949 35.09 7.63781 34.452L11.4237 30.668L7.63781 26.884C6.99949 26.246 6.99949 25.19 7.63781 24.552C8.27612 23.914 9.33265 23.914 9.97097 24.552L13.7569 28.336L17.5427 24.552C18.1811 23.914 19.2376 23.914 19.8759 24.552C20.5142 25.19 20.5142 26.246 19.8759 26.884L16.09 30.668L19.8759 34.452ZM18.7093 14.982H8.80439C7.90194 14.982 7.15356 14.234 7.15356 13.332C7.15356 12.43 7.90194 11.682 8.80439 11.682H18.7093C19.6118 11.682 20.3601 12.43 20.3601 13.332C20.3601 14.234 19.6118 14.982 18.7093 14.982ZM35.2175 36.432H25.3126C24.4102 36.432 23.6618 35.684 23.6618 34.782C23.6618 33.88 24.4102 33.132 25.3126 33.132H35.2175C36.12 33.132 36.8684 33.88 36.8684 34.782C36.8684 35.684 36.12 36.432 35.2175 36.432ZM35.2175 28.182H25.3126C24.4102 28.182 23.6618 27.434 23.6618 26.532C23.6618 25.63 24.4102 24.882 25.3126 24.882H35.2175C36.12 24.882 36.8684 25.63 36.8684 26.532C36.8684 27.434 36.12 28.182 35.2175 28.182ZM35.2175 14.982H31.9599V18.282C31.9599 19.184 31.2116 19.932 30.3091 19.932C29.4067 19.932 28.6583 19.184 28.6583 18.282V14.982H25.3126C24.4102 14.982 23.6618 14.234 23.6618 13.332C23.6618 12.43 24.4102 11.682 25.3126 11.682H28.6583V8.382C28.6583 7.48 29.4067 6.732 30.3091 6.732C31.2116 6.732 31.9599 7.48 31.9599 8.382V11.682H35.2175C36.12 11.682 36.8684 12.43 36.8684 13.332C36.8684 14.234 36.12 14.982 35.2175 14.982Z" fill="#E49D8E"/>
</svg>
